<svg width="62" height="65" viewBox="0 0 62 65" fill="none" xmlns="http://www.w3.org/2000/svg">
<g clip-path="url(#clip0)">
<path d="M61.8163 54.7628V64.3593H0.331543V54.7628C0.331543 52.2241 1.83023 49.9365 4.10901 49.0208L17.0733 43.7307L27.1927 55.2692L30.3681 48.5568V48.5435L31.0739 47.0403L31.7925 48.5436L34.9692 55.2692L45.0744 43.7307L58.0515 49.0208C60.3176 49.9512 61.8163 52.2241 61.8163 54.7628Z" fill="#F2F2F2"/>
<path d="M40.1434 41.7366H40.1563V36.2738C39.4838 37.3318 38.7024 38.4057 37.7943 39.4797L36.539 40.9152C35.3861 42.2165 33.7466 42.9754 32.0429 42.9754H30.1215C28.4178 42.9754 26.777 42.2178 25.6255 40.9152L24.3702 39.4797C23.4518 38.3965 22.6615 37.3079 21.9863 36.2393V41.7274L22.0069 41.738L29.9102 46.3635L31.0759 47.0414L32.2415 46.3635L40.1434 41.7366Z" fill="#F8B64C"/>
<g opacity="0.1">
<g opacity="0.1">
<path opacity="0.1" d="M27.8346 42.4889C27.827 42.4863 27.8193 42.4835 27.8116 42.4809C27.7987 42.4755 27.7847 42.4715 27.7718 42.4676C27.759 42.461 27.7449 42.4596 27.7271 42.453L32.5574 46.1759L40.1431 41.7365H40.1508L40.156 36.3015C40.1431 36.3215 38.355 38.7525 37.794 39.4769L36.5387 40.9138C35.3859 42.2151 33.7463 42.974 32.0426 42.974H30.1212C29.7331 42.974 29.3527 42.9301 28.9799 42.8477C28.5853 42.7694 28.2049 42.647 27.8346 42.4889Z" fill="#40596B"/>
</g>
</g>
<path d="M22.0846 25.1419C22.2844 27.5277 21.1687 29.5786 19.5931 29.7195C18.015 29.863 16.574 28.0434 16.3703 25.6576C16.1705 23.2717 17.2862 21.2235 18.8643 21.08C20.4412 20.9364 21.8847 22.7547 22.0846 25.1419Z" fill="#F8B64C"/>
<path d="M45.7899 25.6618C45.5901 28.0477 44.1465 29.866 42.5696 29.7224C40.9915 29.5789 39.8745 27.5307 40.0782 25.1448C40.278 22.7589 41.7216 20.9393 43.2984 21.0829C44.8765 21.2237 45.9922 23.2746 45.7899 25.6618Z" fill="#F8B64C"/>
<path d="M44.1454 25.1499C43.9033 27.8216 42.6838 33.7085 37.7933 39.477L36.538 40.9125C35.3852 42.2151 33.7456 42.9741 32.0419 42.9741H30.1205C28.4168 42.9741 26.776 42.2164 25.6245 40.9125L24.3692 39.477C19.476 33.7085 18.272 27.8202 18.0145 25.1499C17.6687 21.4681 17.8095 16.7895 18.0145 15.5799C19.1802 8.49553 25.0225 4.09595 31.0813 4.09595C37.1389 4.09595 42.98 8.49553 44.1455 15.5799C44.3504 16.7895 44.4913 21.4695 44.1454 25.1499Z" fill="#FFD15C"/>
<path d="M21.0942 7.45499C21.0942 7.45499 21.1839 -1.49433 33.723 1.36471C33.723 1.36471 39.9445 3.39297 43.9473 9.39292C43.9473 9.39292 47.7031 15.0525 45.6612 19.8136C44.9977 21.3594 44.2855 23.1286 44.3675 24.5494C44.3675 24.5494 43.672 21.5335 43.2569 19.0201C42.9098 16.9147 42.0363 14.9423 40.6951 13.3233L40.6554 13.2741C38.4842 10.6649 35.0858 9.44475 31.8721 10.3048C30.3388 10.7155 28.5942 11.517 26.6753 12.9379C26.6753 12.9379 21.4516 9.29996 18.8693 15.668C18.8693 15.668 17.7189 20.3228 17.8817 23.9993C17.8817 23.9978 10.6918 8.37747 21.0942 7.45499Z" fill="black"/>
<line x1="17.292" y1="20.5941" x2="22.8688" y2="24.6061" stroke="black"/>
<path opacity="0.4" d="M28.5684 25.5693C31.0297 24.6874 32.1472 24.8967 34.0029 25.6468" stroke="black"/>
<line x1="38.7116" y1="25.553" x2="44.322" y2="21.5916" stroke="black"/>
<circle cx="25" cy="25" r="3.5" fill="#FFD15C" stroke="black"/>
<circle cx="37" cy="25" r="3.5" fill="#FFD15C" stroke="black"/>
<path d="M48.1982 47.4514C48.1726 47.2255 48.1226 45.1533 47.7126 44.3159C47.0196 42.9057 45.7784 41.9633 44.2797 41.724L40.1551 40.8601V41.7374H40.1422L39.5518 42.0829L44.0747 43.0399C45.1636 43.2127 46.0743 43.8906 46.5597 44.9127C46.88 45.564 47.0106 46.2698 46.9069 46.9609L46.88 47.3064C41.4616 52.1845 39.9245 56.5839 39.8605 56.7833C39.4532 58.046 39.4775 59.0429 39.9258 59.7606C40.4267 60.5714 41.2439 60.6644 41.3463 60.6777L41.4745 59.3485C41.4616 59.3485 41.1542 59.2941 40.989 59.0162C40.784 58.6693 40.8084 58.0326 41.0787 57.2204C41.0915 57.1925 41.8472 55.0287 44.1529 52.1019C44.7933 51.7695 45.5094 51.7045 46.2024 51.9158C46.8686 52.1285 47.4308 52.5951 47.778 53.2171C48.0329 57.0597 47.4706 59.3194 47.4577 59.3326C47.2131 60.1566 46.88 60.7017 46.5099 60.8478C46.2153 60.982 45.945 60.8345 45.945 60.8213L45.6247 61.4048L45.2917 61.9804C45.3442 62.0203 45.74 62.2462 46.2652 62.2462C46.483 62.2462 46.7162 62.2063 46.9583 62.1C47.7268 61.7956 48.3173 60.9969 48.699 59.7209C48.7515 59.5216 49.9415 54.8815 48.1982 47.4514ZM46.497 50.894C46.1114 50.7744 45.7015 50.7226 45.3159 50.7359C45.8693 50.1099 46.4816 49.4732 47.1745 48.8233C47.3667 49.7524 47.5075 50.6429 47.6101 51.4816C47.2771 51.2264 46.9043 51.0282 46.497 50.894Z" fill="#ACB3BA"/>
<path d="M42.4746 60.2478C42.3721 60.7822 41.8712 61.1304 41.3563 61.0254C40.8439 60.9204 41.209 58.9838 41.7239 59.0888C42.239 59.1939 42.5758 59.7135 42.4746 60.2478Z" fill="#F8B64C"/>
<path d="M44.5512 60.9122C44.3335 61.408 44.541 61.9928 45.0187 62.2201C45.4966 62.4474 46.2894 60.6544 45.8117 60.4257C45.3377 60.1984 44.7716 60.4164 44.5512 60.9122Z" fill="#F8B64C"/>
<path d="M22.0049 41.7366L21.9844 41.726V40.8594L19.215 41.4509C16.2599 42.0823 13.7736 44.0388 12.3877 46.8167C11.0043 49.5974 10.9044 52.8352 12.1174 55.7008L13.2907 55.1665C12.2353 52.6703 12.3172 49.8512 13.5265 47.4282C14.7318 45.0091 16.8991 43.3037 19.4713 42.7548L22.6006 42.0863L22.0049 41.7366Z" fill="#ACB3BA"/>
<path d="M45.0743 43.7305L35.6223 56.5968L31.0737 47.0401L32.2394 46.3622L40.1427 41.7367H40.1556L40.1683 41.7234L45.0743 43.7305Z" fill="#CDD6E0"/>
<path d="M17.0732 43.7305L26.5407 56.5968L31.0739 47.0401L29.9082 46.3622L22.0049 41.7367L21.9793 41.7234L17.0732 43.7305Z" fill="#CDD6E0"/>
<path d="M26.541 64.359L29.1272 58.2449L28.0115 56.5435L27.1943 55.2675L30.3684 48.5433L31.0742 47.04L31.7928 48.5433V48.5565L34.9695 55.2675L34.1369 56.5315L33.0212 58.2449L35.6227 64.359H26.541Z" fill="#334A5E"/>
<path d="M34.9695 55.2675L34.1369 56.5315L31.0871 50.0572L28.0115 56.5435L27.1943 55.2675L30.3685 48.5433L31.0742 47.04L31.7928 48.5433V48.5565L34.9695 55.2675Z" fill="#2A4356"/>
<path d="M16.556 57.7824C16.556 59.4438 15.2547 60.7929 13.6534 60.7929C12.0522 60.7929 10.7534 59.4438 10.7534 57.7824C10.7534 56.121 12.0523 54.7732 13.6534 54.7732C15.2545 54.7732 16.556 56.1208 16.556 57.7824Z" fill="#FF7058"/>
<path d="M15.6029 57.7822C15.6029 58.8987 14.7319 59.8038 13.6559 59.8038C12.5774 59.8038 11.7051 58.8973 11.7051 57.7822C11.7051 56.667 12.5787 55.7605 13.6559 55.7605C14.7319 55.7605 15.6029 56.6657 15.6029 57.7822Z" fill="#F2F2F2"/>
<path d="M15.02 57.782C15.02 58.5662 14.409 59.199 13.6571 59.199C12.9014 59.199 12.2891 58.5649 12.2891 57.782C12.2891 57.0005 12.9026 56.3665 13.6571 56.3665C14.409 56.3665 15.02 57.0005 15.02 57.782Z" fill="#ACB3BA"/>
<path d="M24.9184 25.6278C25.4256 25.6278 25.8368 25.0396 25.8368 24.3139C25.8368 23.5883 25.4256 23 24.9184 23C24.4112 23 24 23.5883 24 24.3139C24 25.0396 24.4112 25.6278 24.9184 25.6278Z" fill="#3B3757"/>
<path d="M27.425 21.1596C27.8574 21.1596 27.9033 20.1581 27.425 19.6574C26.9466 19.1567 24.5511 19.1367 23.9197 19.4371C23.2883 19.7375 25.4427 21.1796 27.425 21.1596Z" fill="#3B3757"/>
<path d="M36.9184 25.6278C37.4256 25.6278 37.8368 25.0396 37.8368 24.3139C37.8368 23.5883 37.4256 23 36.9184 23C36.4112 23 36 23.5883 36 24.3139C36 25.0396 36.4112 25.6278 36.9184 25.6278Z" fill="#3B3757"/>
<path d="M35.2158 21.1596C34.7873 21.1596 34.7375 20.1581 35.2158 19.6574C35.6942 19.1567 38.0897 19.1367 38.7211 19.4371C39.3525 19.7375 37.1904 21.1796 35.2158 21.1596Z" fill="#3B3757"/>
<path d="M31.3205 29.4916C30.9511 29.4598 30.5892 29.3651 30.249 29.2112C30.2943 29.4747 30.4266 29.7132 30.6228 29.8849C30.819 30.0567 31.0666 30.1508 31.3224 30.1508C31.5782 30.1508 31.8258 30.0567 32.022 29.8849C32.2182 29.7132 32.3505 29.4747 32.3958 29.2112C32.0544 29.3655 31.6912 29.4602 31.3205 29.4916Z" fill="#D89E84"/>
<path d="M27.8726 32.0435C28.2552 33.4255 29.6558 34.447 31.3166 34.447C32.9774 34.447 34.378 33.4255 34.7606 32.0435H27.8726Z" fill="#FF437B"/>
<path d="M33.9114 33.4454C33.433 32.7684 32.4534 32.3037 31.3207 32.3037C30.188 32.3037 29.2045 32.7684 28.73 33.4454C29.45 34.096 30.3695 34.454 31.3207 34.454C32.2719 34.454 33.1913 34.096 33.9114 33.4454Z" fill="#F5749B"/>
<path d="M34.3933 32.0435H28.2476C28.435 32.3869 28.74 32.6432 29.1009 32.7605C29.8352 32.8797 30.5774 32.9373 31.3204 32.9327C32.0634 32.9373 32.8056 32.8797 33.5399 32.7605C33.9008 32.6432 34.2058 32.3869 34.3933 32.0435Z" fill="white"/>
</g>
<defs>
<clipPath id="clip0">
<rect x="0.331543" y="0.679932" width="61.4847" height="63.8" fill="white"/>
</clipPath>
</defs>
</svg>
